<svg width="200" height="200" viewBox="0 0 200 200" fill="none" xmlns="http://www.w3.org/2000/svg">
<path fill-rule="evenodd" clip-rule="evenodd" d="M98.5581 3.37214C99.2532 2.87595 100.187 2.87595 100.882 3.37214C120.003 17.0202 143.757 26.8304 171.872 33.0472C172.788 33.2497 173.44 34.0618 173.44 35V126.16C173.44 133.441 170.66 140.861 166.174 147.964C161.683 155.077 155.409 161.988 148.232 168.293C133.895 180.888 115.723 191.261 100.316 196.069C99.9278 196.19 99.5122 196.19 99.1242 196.069C83.7169 191.261 65.5453 180.888 51.2075 168.293C44.0309 161.988 37.7574 155.077 33.2655 147.964C28.7804 140.861 26 133.441 26 126.16V35C26 34.0618 26.6521 33.2497 27.5682 33.0472C55.6827 26.8304 79.4369 17.0202 98.5581 3.37214ZM30 36.6014V126.16C30 132.434 32.4071 139.113 36.6476 145.828C40.8813 152.533 46.8716 159.159 53.8475 165.287C67.628 177.393 85.0307 187.359 99.72 192.062C114.409 187.359 131.812 177.393 145.593 165.287C152.568 159.159 158.559 152.533 162.792 145.828C167.033 139.113 169.44 132.434 169.44 126.16V36.6014C142.167 30.4071 118.806 20.7951 99.72 7.44874C80.6337 20.7951 57.2729 30.4071 30 36.6014ZM97.5344 38.8554C98.1943 38.4766 99.012 38.5051 99.6439 38.9289C129.256 58.787 141.744 84.2232 141.845 105.522C141.946 126.721 129.654 143.927 109.901 146.286C109.219 146.432 108.483 146.216 107.988 145.662C107.282 144.871 107.316 143.666 108.066 142.916L108.076 142.906C108.148 142.834 108.224 142.768 108.305 142.709C119.364 133.86 123.663 120.74 122.596 108.024C121.68 97.1138 116.825 86.6589 109.073 79.6274C109.548 83.1784 109.416 86.6257 108.656 89.728C107.502 94.4438 104.861 98.4663 100.619 100.631C99.9998 100.948 99.2606 100.919 98.6672 100.557C98.0737 100.194 97.7113 99.5491 97.71 98.8536C97.7055 96.3886 97.2482 94.3598 96.1786 92.3454C95.6298 91.3119 94.906 90.2561 93.9632 89.1313C93.5874 93.8475 91.8827 97.952 89.7485 101.637C88.3078 104.125 86.6528 106.453 85.0757 108.641C84.9441 108.823 84.8132 109.005 84.683 109.185C83.2328 111.195 81.8756 113.075 80.7342 114.954C78.2603 119.025 77.0432 122.697 78.2236 126.782C79.4436 131.005 83.3534 136.146 92.4684 142.707C93.2453 143.266 93.517 144.297 93.1166 145.167C92.7162 146.036 91.756 146.5 90.826 146.273C79.788 143.58 70.1972 139.662 63.7872 133.276C57.2585 126.771 54.2443 117.928 55.9501 105.987L55.9501 105.987C56.4486 102.501 58.2012 98.6493 60.2601 94.7317C61.1806 92.9803 62.191 91.1644 63.2167 89.3209C63.3523 89.0773 63.4881 88.8333 63.624 88.5888C64.7939 86.4844 65.9774 84.3391 67.0992 82.1522C71.6392 73.3016 74.8668 64.3023 72.2111 55.8067C71.9976 55.1237 72.1653 54.3786 72.6509 53.8529C73.1365 53.3272 73.8659 53.1011 74.5637 53.2598C80.897 54.701 86.9713 57.5231 92.8072 61.5649C96.7434 54.2032 96.9574 47.527 96.5339 40.7141C96.4866 39.9547 96.8745 39.2342 97.5344 38.8554ZM116.124 140.773C129.536 136.078 137.926 122.552 137.845 105.541C137.755 86.587 127.037 63.402 100.685 44.5168C100.755 51.0591 99.7714 57.9725 95.1455 65.5247C94.8523 66.0033 94.3714 66.3368 93.8203 66.4435C93.2692 66.5503 92.6986 66.4205 92.2479 66.0859C87.2212 62.3543 82.0889 59.6464 76.8325 58.0101C78.3098 67.0462 74.717 76.0653 70.6583 83.9778C69.5032 86.2297 68.2909 88.4262 67.1201 90.5324C66.9833 90.7784 66.8472 91.023 66.7119 91.2663C65.6829 93.1155 64.6975 94.8865 63.8009 96.5926C61.7463 100.502 60.3014 103.814 59.9099 106.553C58.3558 117.432 61.1015 124.954 66.6103 130.442C70.492 134.309 75.847 137.27 82.3442 139.6C77.9776 135.446 75.4544 131.608 74.3808 127.893C72.7418 122.22 74.6123 117.325 77.3158 112.876C78.5441 110.855 79.9944 108.846 81.4244 106.865C81.5601 106.677 81.6957 106.489 81.8309 106.302C83.4104 104.111 84.9575 101.929 86.2871 99.6327C88.9271 95.074 90.6335 90.1949 89.8477 84.3358C89.7358 83.5007 90.1591 82.685 90.9065 82.296C91.6539 81.9069 92.5649 82.028 93.1848 82.5987C96.1688 85.3465 98.3187 87.8466 99.7114 90.4696C100.531 92.0139 101.07 93.5651 101.38 95.1852C102.978 93.5816 104.128 91.4025 104.771 88.777C105.722 84.8916 105.522 80.1347 104.027 75.2445C103.781 74.4374 104.067 73.5622 104.744 73.0573C105.42 72.5524 106.34 72.5265 107.044 72.9925C118.416 80.5228 125.422 93.8718 126.582 107.689C127.556 119.297 124.415 131.387 116.124 140.773Z" fill="#784618"/>
</svg>
