<svg width="200" height="200" viewBox="0 0 200 200" fill="none" xmlns="http://www.w3.org/2000/svg">
<path fill-rule="evenodd" clip-rule="evenodd" d="M134.056 23.8865H64.8912V19.8865H134.056C141.193 19.8865 146.982 25.6751 146.982 32.8125V109.991H142.982V32.8125C142.982 27.8842 138.984 23.8865 134.056 23.8865Z" fill="#784618"/>
<path fill-rule="evenodd" clip-rule="evenodd" d="M36.103 63.5554V166.638C36.103 171.566 40.1008 175.564 45.029 175.564H111.462V179.564H45.029C37.8916 179.564 32.103 173.775 32.103 166.638V63.5554H36.103Z" fill="#784618"/>
<path fill-rule="evenodd" clip-rule="evenodd" d="M129.695 37.146H64.231V33.146H130.203C132.131 33.146 133.695 34.7107 133.695 36.6384V68.5481C133.695 70.4757 132.131 72.0405 130.203 72.0405H48.8731C46.9454 72.0405 45.3807 70.4757 45.3807 68.5481V57.405H49.3807V68.0405H129.695V37.146Z" fill="#784618"/>
<path fill-rule="evenodd" clip-rule="evenodd" d="M49.3807 85.6075V99.0457H64.3293V85.6075H49.3807ZM45.3807 85.0999C45.3807 83.1711 46.9443 81.6075 48.8731 81.6075H64.837C66.7657 81.6075 68.3293 83.1711 68.3293 85.0999V99.5534C68.3293 101.482 66.7658 103.046 64.837 103.046H48.8731C46.9443 103.046 45.3807 101.482 45.3807 99.5534V85.0999Z" fill="#784618"/>
<path fill-rule="evenodd" clip-rule="evenodd" d="M82.0682 85.6075V99.0457H97.0169V85.6075H82.0682ZM78.0682 85.0999C78.0682 83.1711 79.6318 81.6075 81.5606 81.6075H97.5245C99.4533 81.6075 101.017 83.1711 101.017 85.0999V99.5534C101.017 101.482 99.4533 103.046 97.5245 103.046H81.5606C79.6318 103.046 78.0682 101.482 78.0682 99.5534V85.0999Z" fill="#784618"/>
<path fill-rule="evenodd" clip-rule="evenodd" d="M114.747 85.6075V99.0457H129.695V85.6075H114.747ZM110.747 85.0999C110.747 83.1711 112.31 81.6075 114.239 81.6075H130.203C132.132 81.6075 133.695 83.1711 133.695 85.0999V99.5534C133.695 101.482 132.132 103.046 130.203 103.046H114.239C112.31 103.046 110.747 101.482 110.747 99.5534V85.0999Z" fill="#784618"/>
<path fill-rule="evenodd" clip-rule="evenodd" d="M49.3807 116.622V130.06H64.3293V116.622H49.3807ZM45.3807 116.114C45.3807 114.185 46.9443 112.622 48.8731 112.622H64.837C66.7658 112.622 68.3293 114.185 68.3293 116.114V130.568C68.3293 132.496 66.7657 134.06 64.837 134.06H48.8731C46.9443 134.06 45.3807 132.496 45.3807 130.568V116.114Z" fill="#784618"/>
<path fill-rule="evenodd" clip-rule="evenodd" d="M82.0682 116.622V130.06H97.0169V116.622H82.0682ZM78.0682 116.114C78.0682 114.185 79.6318 112.622 81.5606 112.622H97.5245C99.4533 112.622 101.017 114.185 101.017 116.114V130.568C101.017 132.496 99.4533 134.06 97.5245 134.06H81.5606C79.6318 134.06 78.0682 132.496 78.0682 130.568V116.114Z" fill="#784618"/>
<path fill-rule="evenodd" clip-rule="evenodd" d="M114.747 116.613H130.212V112.613H114.239C112.312 112.613 110.747 114.178 110.747 116.105V130.568H114.747V116.613Z" fill="#784618"/>
<path fill-rule="evenodd" clip-rule="evenodd" d="M49.3807 147.636V161.074H64.3293V147.636H49.3807ZM45.3807 147.129C45.3807 145.2 46.9443 143.636 48.8731 143.636H64.837C66.7657 143.636 68.3293 145.2 68.3293 147.129V161.582C68.3293 163.511 66.7658 165.074 64.837 165.074H48.8731C46.9442 165.074 45.3807 163.511 45.3807 161.582V147.129Z" fill="#784618"/>
<path fill-rule="evenodd" clip-rule="evenodd" d="M82.0592 147.627H106.642V143.627H81.5516C79.6239 143.627 78.0592 145.192 78.0592 147.12V161.582C78.0592 163.51 79.6239 165.074 81.5516 165.074H106.415V161.074H82.0592V147.627Z" fill="#784618"/>
<path fill-rule="evenodd" clip-rule="evenodd" d="M152.58 118.467C132.674 118.467 116.538 134.604 116.538 154.509C116.538 174.414 132.674 190.551 152.58 190.551C172.485 190.551 188.622 174.414 188.622 154.509C188.622 134.604 172.485 118.467 152.58 118.467ZM112.538 154.509C112.538 132.394 130.465 114.467 152.58 114.467C174.694 114.467 192.622 132.394 192.622 154.509C192.622 176.624 174.694 194.551 152.58 194.551C130.465 194.551 112.538 176.624 112.538 154.509Z" fill="#784618"/>
<path fill-rule="evenodd" clip-rule="evenodd" d="M33.6599 8.80896C21.5919 8.80896 11.809 18.5919 11.809 30.6599C11.809 42.7278 21.5919 52.5107 33.6599 52.5107C45.7278 52.5107 55.5107 42.7278 55.5107 30.6599C55.5107 18.5919 45.7278 8.80896 33.6599 8.80896ZM7.80896 30.6599C7.80896 16.3828 19.3828 4.80896 33.6599 4.80896C47.9369 4.80896 59.5107 16.3828 59.5107 30.6599C59.5107 44.9369 47.9369 56.5107 33.6599 56.5107C19.3828 56.5107 7.80896 44.9369 7.80896 30.6599Z" fill="#784618"/>
<path fill-rule="evenodd" clip-rule="evenodd" d="M143.733 174.335V138.129H147.733V174.335H143.733Z" fill="#784618"/>
<path fill-rule="evenodd" clip-rule="evenodd" d="M145.924 136.129C145.861 136.123 145.797 136.12 145.733 136.12C144.628 136.12 143.733 137.015 143.733 138.12V157.593C143.733 158.698 144.628 159.593 145.733 159.593H158.766C165.243 159.593 170.498 154.338 170.498 147.861C170.498 141.384 165.243 136.129 158.766 136.129H145.924ZM147.733 140.129V155.593H158.766C163.034 155.593 166.498 152.129 166.498 147.861C166.498 143.593 163.034 140.129 158.766 140.129H147.733Z" fill="#784618"/>
<path fill-rule="evenodd" clip-rule="evenodd" d="M145.733 159.602H138.072V155.602H145.733V159.602Z" fill="#784618"/>
<path fill-rule="evenodd" clip-rule="evenodd" d="M158.341 167.01H138.072V163.01H158.341V167.01Z" fill="#784618"/>
<path fill-rule="evenodd" clip-rule="evenodd" d="M25.3839 22.3127C24.4254 22.3127 23.6484 23.0897 23.6484 24.0482C23.6484 25.0067 24.4254 25.7837 25.3839 25.7837C26.3424 25.7837 27.1194 25.0067 27.1194 24.0482C27.1194 23.0897 26.3424 22.3127 25.3839 22.3127ZM19.6484 24.0482C19.6484 20.8806 22.2163 18.3127 25.3839 18.3127C28.5515 18.3127 31.1194 20.8806 31.1194 24.0482C31.1194 27.2158 28.5515 29.7837 25.3839 29.7837C22.2163 29.7837 19.6484 27.2158 19.6484 24.0482Z" fill="#784618"/>
<path fill-rule="evenodd" clip-rule="evenodd" d="M40.362 37.2908C39.4035 37.2908 38.6265 38.0678 38.6265 39.0262C38.6265 39.9847 39.4035 40.7617 40.362 40.7617C41.3205 40.7617 42.0975 39.9847 42.0975 39.0262C42.0975 38.0678 41.3205 37.2908 40.362 37.2908ZM34.6265 39.0262C34.6265 35.8586 37.1944 33.2908 40.362 33.2908C43.5296 33.2908 46.0975 35.8586 46.0975 39.0262C46.0975 42.1938 43.5296 44.7617 40.362 44.7617C37.1944 44.7617 34.6265 42.1938 34.6265 39.0262Z" fill="#784618"/>
<path fill-rule="evenodd" clip-rule="evenodd" d="M23.9697 37.6119L38.9477 22.6339L41.7762 25.4623L26.7981 40.4403L23.9697 37.6119Z" fill="#784618"/>
</svg>
