<?xml version="1.0" encoding="utf-8"?>
<!-- Generator: Adobe Illustrator 27.7.0, SVG Export Plug-In . SVG Version: 6.00 Build 0)  -->
<svg version="1.1" id="Слой_1" xmlns="http://www.w3.org/2000/svg" xmlns:xlink="http://www.w3.org/1999/xlink" x="0px" y="0px"
	 viewBox="0 0 114.4 44.6" style="enable-background:new 0 0 114.4 44.6;" xml:space="preserve">
<style type="text/css">
	.st0{fill:#F4C28A;}
	.st1{fill:#362F2D;}
	.st2{enable-background:new    ;}
	.st3{fill:#FFFFFF;}
</style>
<g>
	<circle class="st0" cx="22.3" cy="22.3" r="22.3"/>
	<path class="st1" d="M24.2,13.1v3.2l0,0v9.8h-3.8v-9.8H8.5v-3.2C8.5,13.1,24.2,13.1,24.2,13.1z"/>
	<path class="st1" d="M30,19.8h1.9c8.5,0,8.4,11.6,0,11.7h-5.6V13H36v3.2h-6.1v3.6C29.9,19.8,30,19.8,30,19.8z M30,23.1v5.2h1.9
		c1.4,0,2.6-1.2,2.6-2.6l0,0c0-1.4-1-2.5-2.4-2.6c-0.1,0-0.1,0-0.2,0L30,23.1L30,23.1z"/>
	<path class="st1" d="M14.5,28.3h-1.9c-1.4,0-2.6-1.2-2.6-2.6l0,0c0-1.4,1-2.5,2.4-2.6c0.1,0,0.1,0,0.2,0h5.6v-3.2h-5.6
		c-8.5-0.1-8.3,11.6,0,11.7h11.6v-3.2L14.5,28.3L14.5,28.3z"/>
	<g class="st2">
		<path class="st3" d="M62,16v17.6h-4.4V16h-6.7v-4h17.7v4H62z"/>
		<path class="st3" d="M76,20.4h3c3,0,5.2,0.6,6.7,1.8c1.5,1.2,2.2,2.9,2.2,5.1c0,2.1-0.7,3.7-2.1,4.8c-1.4,1.1-3.6,1.6-6.7,1.6
			h-7.5V12h14.7v3.6H76V20.4z M83.4,27c0-0.8-0.2-1.3-0.5-1.8s-0.8-0.8-1.4-0.9s-1.6-0.3-3-0.3H76v6h2.8c1.5,0,2.6-0.2,3.4-0.6
			C83,29,83.4,28.2,83.4,27z"/>
		<path class="st3" d="M109.5,30c-0.9,1.4-2.1,2.4-3.4,3.1s-3,1-5,1c-6.7,0-10-3.8-10-11.3c0-3.8,0.8-6.7,2.5-8.5
			c1.7-1.8,4.1-2.8,7.3-2.8c2.1,0,3.8,0.4,5.2,1.1c1.3,0.7,2.3,1.6,3,2.8l-3.4,2.7c-0.5-0.8-1-1.3-1.4-1.6c-0.4-0.3-0.9-0.6-1.4-0.8
			c-0.5-0.2-1.2-0.2-1.9-0.2c-1.8,0-3.1,0.6-4,1.7c-0.9,1.1-1.4,3-1.4,5.7c0,2.5,0.4,4.3,1.3,5.5s2.3,1.8,4.2,1.8
			c1.3,0,2.3-0.2,3-0.7c0.7-0.5,1.4-1.1,1.9-2L109.5,30z"/>
	</g>
</g>
</svg>
